<?xml version="1.0" encoding="utf-8"?>
<!-- Generator: Adobe Illustrator 15.0.0, SVG Export Plug-In . SVG Version: 6.00 Build 0)  -->
<!DOCTYPE svg PUBLIC "-//W3C//DTD SVG 1.1//EN" "http://www.w3.org/Graphics/SVG/1.1/DTD/svg11.dtd">
<svg version="1.1" id="Layer_1" xmlns="http://www.w3.org/2000/svg" xmlns:xlink="http://www.w3.org/1999/xlink" x="0px" y="0px"
	 width="32px" height="32px" viewBox="-0.06 0 32 32" enable-background="new -0.06 0 32 32" xml:space="preserve">
<rect x="-0.06" width="32" height="32"/>
<rect x="59.392" y="0.939" fill="none" width="32.423" height="31.871"/>
<text transform="matrix(1 0 0 1 59.3921 26.1387)" display="none" fill="#C05555" font-family="'GolosText-Regular'" font-size="36">M</text>
<rect x="46.417" y="-0.811" fill="none" width="30.834" height="30.764"/>
<text transform="matrix(1 0 0 1 46.4165 24.3887)" display="none" fill="#FFF957" font-family="'GolosText-Regular'" font-size="36">A</text>
<g>
	<path fill="#FFF957" d="M2.654,29.46l9.844-26.92h6.921l9.808,26.92h-7.308l-1.845-5.154h-8.998L9.229,29.46H2.654z M13.037,19
		h5.075l-2.537-7.999L13.037,19z"/>
</g>
<g display="none">
	<path display="inline" fill="#FFD9D9" d="M13.86,27.294V12.865h3.793l3.998,7.318l3.959-7.318h3.709v14.429H25.61v-8.266
		l-2.99,5.483h-2.061l-2.989-5.483v8.266H13.86z"/>
</g>
</svg>
