<svg xmlns="http://www.w3.org/2000/svg" width="100" height="100" viewBox="0 0 100 100">
            <path d="M54.53,41.57a12.22,12.22,0,0,1,1.54,5.9c0,3.54-1.76,6.62-4.57,7.52v4.22H70.9A49.15,49.15,0,0,0,63.77,39C60.28,33.65,56,30.18,51.5,29.52v9.12A6.66,6.66,0,0,1,54.53,41.57Z" fill="#fff"/>
            <path d="M28.67,62.82c-.06.94-.08,1.86-.08,2.87,0,8.73,2.49,16.07,6.4,21.18s9.2,8,15,8,11.08-2.87,15-8,6.41-12.45,6.41-21.18c0-1,0-1.94-.08-2.89ZM53,88h0a1,1,0,0,1-1-1,1,1,0,0,1,1-1c7.43-.11,13.6-7.6,13.6-17v-.45a1,1,0,0,1,2.06,0v.48C68.62,79.14,61.86,87.75,53,88Z" fill="#fff" />
            <path d="M43.64,47.47a12.19,12.19,0,0,1,1.52-5.86,6.64,6.64,0,0,1,3-2.94V29.54c-4.44.72-8.73,4.2-12.18,9.49a48.9,48.9,0,0,0-7.09,20.18H48.15V55C45.38,54,43.62,51,43.64,47.47Z" fill="#fff"/>
            <path d="M42.3,14.7c1.86,1,4.21,1.16,6,1.72a5.37,5.37,0,0,1,2.08,1,2,2,0,0,1,.68,1.64c0,1.08-.56,2.89-2.18,5.54A1,1,0,0,0,49.27,26l.52.14a1,1,0,0,0,.88-.49c1.7-2.81,2.46-4.88,2.48-6.61a4.2,4.2,0,0,0-2.25-3.8c-1.86-1-4.23-1.26-6.06-1.79a5.74,5.74,0,0,1-2.1-.94,1.7,1.7,0,0,1-.65-1.45,9.45,9.45,0,0,1,1.65-4.37,1,1,0,0,0-1.76-1A11.1,11.1,0,0,0,40,11.08,4,4,0,0,0,42.3,14.7Z" fill="#fff"/>
            <g id="mouseRings" stroke="white" strokeWidth="2" fill="none">
              <circle cx="50" cy="47" r="12" />
              <circle cx="50" cy="47" r="12" />
              <circle cx="50" cy="47" r="12" />
              <circle cx="50" cy="47" r="12" />
            </g>
          </svg>