<svg width="442" height="444" viewBox="0 0 442 444" fill="none" xmlns="http://www.w3.org/2000/svg">
<path d="M353.255 232.592C392.814 235.874 423.297 271.637 406.706 307.7C400.452 321.293 392.709 334.224 383.575 346.241C359.853 377.449 327.737 401.182 291.028 414.631C254.319 428.079 214.555 430.68 176.441 422.125C138.328 413.571 103.462 394.219 75.9708 366.361C48.4791 338.502 29.5126 303.303 21.3165 264.931C13.1204 226.559 16.0378 186.619 29.7234 149.84C43.409 113.061 67.2897 80.9829 98.5388 57.402C110.363 48.4793 123.055 40.9146 136.376 34.7983C172.669 18.1333 208.437 49.1008 211.378 88.9265L214.143 126.369C215.55 145.418 200.034 161.392 184.786 172.899V172.899C175.513 179.896 168.426 189.415 164.365 200.329C160.304 211.243 159.438 223.095 161.871 234.482C164.303 245.869 169.931 256.314 178.089 264.581C186.247 272.848 196.593 278.59 207.903 281.129C219.213 283.667 231.013 282.896 241.906 278.905C252.799 274.914 262.33 267.871 269.369 258.61V258.61C280.965 243.356 297.106 227.933 316.201 229.518L353.255 232.592Z" fill="#D8DCFF"/>
<path d="M122.271 25.4772C121.757 26.152 121.077 26.6836 120.298 27.0214C93.1112 38.8763 69.4183 57.4894 51.4762 81.0882C50.6786 82.1366 49.4967 82.8254 48.1904 83.0029C46.8841 83.1804 45.5605 82.8321 44.5106 82.0347C43.4608 81.2373 42.7708 80.0561 42.5924 78.7508C42.414 77.4456 42.7618 76.1233 43.5594 75.0749C62.5291 50.1209 87.5796 30.4377 116.325 17.8998C117.336 17.4545 118.467 17.3584 119.538 17.6266C120.61 17.8949 121.563 18.5123 122.244 19.3813C122.926 20.2502 123.299 21.3213 123.304 22.4252C123.309 23.5291 122.946 24.603 122.271 25.4772Z" fill="#9DAFFA"/>
</svg>
