<svg width="14" height="14" viewBox="0 0 14 14" fill="none" xmlns="http://www.w3.org/2000/svg">
<path fill-rule="evenodd" clip-rule="evenodd" d="M7 13C10.3137 13 13 10.3137 13 7C13 3.68629 10.3137 1 7 1C3.68629 1 1 3.68629 1 7C1 10.3137 3.68629 13 7 13ZM7 14C10.866 14 14 10.866 14 7C14 3.13401 10.866 0 7 0C3.13401 0 0 3.13401 0 7C0 10.866 3.13401 14 7 14Z" fill="#27AE60"/>
<path fill-rule="evenodd" clip-rule="evenodd" d="M11.3579 4.65084C11.5507 4.8485 11.5468 5.16505 11.3492 5.35789L5.86306 10.7102L2.63901 7.34595C2.44794 7.14658 2.45468 6.83007 2.65405 6.63901C2.85342 6.44794 3.16993 6.45468 3.36099 6.65405L5.88694 9.28982L10.6508 4.64211C10.8485 4.44927 11.1651 4.45318 11.3579 4.65084Z" fill="#27AE60"/>
</svg>
